<svg width="43" height="45" viewBox="0 0 43 45" fill="none" xmlns="http://www.w3.org/2000/svg">
<path fill-rule="evenodd" clip-rule="evenodd" d="M34.1574 1.38513C33.9143 1.12735 33.5846 0.982544 33.2409 0.982544C32.8972 0.982544 32.5676 1.12735 32.3245 1.38513L28.0546 5.91438L37.665 16.1086L41.9349 11.5821C42.0556 11.4544 42.1514 11.3027 42.2167 11.1356C42.2821 10.9686 42.3157 10.7895 42.3157 10.6086C42.3157 10.4278 42.2821 10.2487 42.2167 10.0816C42.1514 9.91458 42.0556 9.76285 41.9349 9.63513L34.1574 1.38513V1.38513ZM35.8321 18.0529L26.2217 7.85863L9.37038 25.7336H9.90703C10.2508 25.7336 10.5805 25.8785 10.8236 26.1364C11.0667 26.3942 11.2033 26.744 11.2033 27.1086V28.4836H12.4995C12.8433 28.4836 13.173 28.6285 13.4161 28.8864C13.6592 29.1442 13.7958 29.494 13.7958 29.8586V31.2336H15.092C15.4358 31.2336 15.7655 31.3785 16.0086 31.6364C16.2517 31.8942 16.3883 32.244 16.3883 32.6086V33.9836H17.6846C18.0283 33.9836 18.3581 34.1285 18.6011 34.3864C18.8442 34.6442 18.9808 34.994 18.9808 35.3586V35.9279L35.8321 18.0529V18.0529ZM16.4713 38.5899C16.4167 38.436 16.3886 38.273 16.3883 38.1086V36.7336H15.092C14.7483 36.7336 14.4186 36.5888 14.1755 36.3309C13.9324 36.073 13.7958 35.7233 13.7958 35.3586V33.9836H12.4995C12.1557 33.9836 11.826 33.8388 11.5829 33.5809C11.3398 33.323 11.2033 32.9733 11.2033 32.6086V31.2336H9.90703C9.56324 31.2336 9.23353 31.0888 8.99043 30.8309C8.74734 30.573 8.61077 30.2233 8.61077 29.8586V28.4836H7.31451C7.15954 28.4834 7.00586 28.4536 6.86083 28.3956L6.39677 28.8851C6.27323 29.0171 6.17622 29.1743 6.11159 29.3471L0.926568 43.0971C0.832277 43.347 0.809194 43.6207 0.860182 43.8844C0.91117 44.1481 1.03399 44.39 1.21341 44.5804C1.39282 44.7707 1.62095 44.901 1.86951 44.955C2.11807 45.0091 2.37613 44.9846 2.6117 44.8846L15.5743 39.3846C15.7372 39.3161 15.8854 39.2132 16.0098 39.0821L16.4713 38.5926V38.5899Z" fill="white"/>
</svg>
